<svg xmlns="http://www.w3.org/2000/svg" viewBox="0 0 16 16" style="height:1em;fill: currentColor;"><path d="M3.723 5.148H.512a.258.258 0 0 0-.258.258v10.317c0 .144.117.257.258.257h3.21a.258.258 0 0 0 .262-.257V5.406a.258.258 0 0 0-.261-.258ZM2.12.02A2.12 2.12 0 0 0 0 2.137a2.12 2.12 0 0 0 4.238 0A2.118 2.118 0 0 0 2.121.02Zm9.774 4.87c-1.29 0-2.243.555-2.825 1.184v-.668a.255.255 0 0 0-.258-.258H5.739a.255.255 0 0 0-.258.258v10.317c0 .144.114.257.258.257h3.203a.258.258 0 0 0 .262-.257v-5.106c0-1.719.465-2.39 1.664-2.39 1.309 0 1.41 1.074 1.41 2.48v5.016c0 .144.118.257.258.257h3.207c.14 0 .258-.113.258-.257v-5.66c0-2.555-.488-5.172-4.105-5.172Zm0 0" fill="currentColor"/></svg>