<svg xmlns="http://www.w3.org/2000/svg" viewBox="0 0 16 16" style="height:1em;fill: currentColor;"><path d="M3.848 11.21c.246 0 .453-.148.629-.444C6.07 7.94 6.898 6.473 6.96 6.356L5.375 3.59c-.168-.293-.379-.438-.637-.438H2.426c-.149 0-.25.051-.309.145-.07.098-.07.219.008.36l1.559 2.698c.007.008.007.008 0 .008L1.234 10.7a.346.346 0 0 0 0 .348c.067.11.164.164.301.164ZM14.46 0h-2.332c-.254 0-.457.145-.621.434L6.37 9.547l3.281 6.02c.153.288.368.433.637.433h2.313c.14 0 .246-.047.308-.145.067-.109.063-.23-.008-.359l-3.25-5.95V9.54L14.758.504c.074-.137.074-.254 0-.36C14.699.048 14.602 0 14.46 0Zm0 0" fill="currentColor"/></svg>